<?xml version="1.0" standalone="no"?>
<!DOCTYPE svg PUBLIC "-//W3C//DTD SVG 20010904//EN"
 "http://www.w3.org/TR/2001/REC-SVG-20010904/DTD/svg10.dtd">
<svg version="1.0" xmlns="http://www.w3.org/2000/svg"
 width="225.000000pt" height="225.000000pt" viewBox="0 0 225.000000 225.000000"
 preserveAspectRatio="xMidYMid meet">

<g transform="translate(0.000000,225.000000) scale(0.100000,-0.100000)"
fill="#000000" stroke="none">
<path d="M921 1780 c-99 -93 -182 -170 -185 -170 -3 0 -6 34 -6 75 l0 75 -125
0 -125 0 0 -198 0 -199 -100 -97 c-55 -54 -100 -104 -100 -112 0 -19 36 -54
56 -54 14 0 92 72 596 553 103 99 191 177 196 175 5 -1 177 -163 382 -358 205
-195 379 -359 387 -364 34 -19 87 34 66 66 -4 8 -100 101 -213 208 -113 108
-294 280 -402 383 -153 146 -202 187 -223 187 -20 0 -66 -38 -204 -170z"/>
<path d="M823 1429 l-293 -281 0 -402 c0 -299 3 -405 12 -414 9 -9 69 -12 210
-12 l198 0 2 253 3 252 170 0 170 0 3 -252 2 -253 198 0 c141 0 201 3 210 12
9 9 12 114 12 410 l0 397 -197 193 c-330 322 -389 378 -399 378 -5 0 -141
-127 -301 -281z"/>
</g>
</svg>
