<?xml version="1.0" standalone="no"?>
<!DOCTYPE svg PUBLIC "-//W3C//DTD SVG 20010904//EN"
 "http://www.w3.org/TR/2001/REC-SVG-20010904/DTD/svg10.dtd">
<svg version="1.0" xmlns="http://www.w3.org/2000/svg"
 width="216.000000pt" height="233.000000pt" viewBox="0 0 216.000000 233.000000"
 preserveAspectRatio="xMidYMid meet">

<g transform="translate(0.000000,233.000000) scale(0.100000,-0.100000)"
fill="#000000" stroke="none">
<path d="M830 1584 c-344 -315 -333 -304 -319 -320 6 -8 17 -10 24 -6 7 4 128
112 269 240 141 128 262 235 270 238 14 5 123 -90 509 -444 45 -41 50 -43 65
-29 18 18 44 -9 -340 340 -119 108 -223 197 -230 196 -7 0 -119 -97 -248 -215z"/>
<path d="M672 1653 c3 -106 6 -128 18 -128 12 0 16 21 20 105 l5 105 55 0 55
0 5 -40 c3 -27 10 -40 20 -40 11 0 16 15 18 63 l3 62 -101 0 -101 0 3 -127z"/>
<path d="M635 1257 c-3 -7 -4 -129 -3 -272 l3 -260 178 -3 177 -2 0 155 0 155
90 0 90 0 0 -155 0 -155 180 0 180 0 -2 272 c-3 250 -4 273 -20 276 -16 3 -18
-16 -20 -250 l-3 -253 -137 -3 -138 -3 0 156 0 155 -130 0 -130 0 0 -155 0
-155 -135 0 c-101 0 -135 3 -135 13 0 6 0 114 -1 240 0 125 -2 234 -5 242 -7
18 -33 20 -39 2z"/>
</g>
</svg>
